# xmcd
#
# Track frame offsets:
#	150
#	21063
#	36988
#	55358
#	90103
#	107848
#	121254
#	134426
#	157992
#	178155
#	190032
#	205004
#	221218
#	237148
#	248542
#
# Disc length: 3555 seconds
#
# Revision: 1
# Processed by: cddbd v1.5PL3 Copyright (c) Steve Scherf et al.
# Submitted via: EasyCDDAExtractor 7.0.5.1
#
DISCID=c50de10f
DTITLE=William Clarke - Tip of The Top
DYEAR=1987
DGENRE=Blues
TTITLE0=Drinkin' Beer
TTITLE1=Just a Dream
TTITLE2=Take a Walk With Me
TTITLE3=Tribute to George Smith
TTITLE4=Charlie's Blues
TTITLE5=Goin' Steady
TTITLE6=Hot Dog and a Beer
TTITLE7=Chromatic Jump
TTITLE8=Hard Times
TTITLE9=Blowin' the Family Jewels
TTITLE10=Drinkin' Straight Whiskey
TTITLE11=Party Party
TTITLE12=Got My Brand on You
TTITLE13=My Dog Don't Bark
TTITLE14=My Wife Got Mad
EXTD=
EXTT0=
EXTT1=
EXTT2=
EXTT3=
EXTT4=
EXTT5=
EXTT6=
EXTT7=
EXTT8=
EXTT9=
EXTT10=
EXTT11=
EXTT12=
EXTT13=
EXTT14=
PLAYORDER=
